<?xml version="1.0" encoding="iso-8859-1"?>
<!-- Generator: Adobe Illustrator 19.0.0, SVG Export Plug-In . SVG Version: 6.00 Build 0)  -->
<svg version="1.1" id="Capa_1" xmlns="http://www.w3.org/2000/svg" xmlns:xlink="http://www.w3.org/1999/xlink" x="0px" y="0px"
	 viewBox="0 0 512 512" style="enable-background:new 0 0 512 512;" xml:space="preserve">
<circle style="fill:#7A6CF7;" cx="245.8" cy="245.801" r="223.09"/>
<path style="fill:#6959E2;" d="M374.637,63.659c25.789,36.391,40.95,80.845,40.95,128.841c0,123.208-99.88,223.088-223.088,223.088
	c-47.997,0-92.451-15.16-128.841-40.949c1.777,2.508,2.605,5.978,4.482,8.408c1.445,1.871,3.92,2.719,5.423,4.542
	c40.916,49.645,102.878,81.297,172.234,81.297c123.208,0,223.088-99.88,223.088-223.088c0-69.26-31.564-131.145-81.09-172.063
	c-1.675-1.384-3.37-4.744-5.086-6.079C380.065,65.597,377.374,65.598,374.637,63.659z"/>
<g>
	<circle style="fill:#F288E8;" cx="212.93" cy="105.511" r="27.731"/>
	<circle style="fill:#F288E8;" cx="139.42" cy="112.311" r="16.531"/>
</g>
<path style="fill:#A7B7C6;" d="M506.37,5.708c-8.991-8.991-25.009-7.391-50.408,5.036c-21.072,10.31-47.752,27.685-79.297,51.642
	c-0.616,0.468-1.139,1.011-1.578,1.602c4.387,3.126,8.661,6.399,12.804,9.827c29.616-22.391,55.544-39.258,75.052-48.804
	c26.729-13.078,32.144-8.124,32.195-8.072c3.309,3.309,1.845,25.908-44.062,89.88c-38.377,53.48-95.348,118.769-160.418,183.839
	S160.299,412.7,106.819,451.077c-63.97,45.905-86.57,47.37-89.88,44.061c-0.052-0.052-5.006-5.467,8.072-32.195
	c9.546-19.509,26.414-45.438,48.805-75.055c-3.427-4.143-6.711-8.408-9.836-12.795c-0.589,0.437-1.129,0.958-1.595,1.571
	c-23.956,31.546-41.331,58.225-51.642,79.297c-12.427,25.399-14.028,41.417-5.036,50.408c3.752,3.752,8.838,5.63,15.339,5.63
	c7.52,0,16.935-2.513,28.369-7.547c17.62-7.755,40.049-21.372,66.665-40.471c54.16-38.865,120.148-96.43,185.81-162.092
	s123.227-131.65,162.092-185.81c19.099-26.616,32.716-49.045,40.472-66.665C513.837,28.098,514.463,13.802,506.37,5.708z"/>
<circle style="fill:#FFE92F;" cx="63.18" cy="487.551" r="16.531"/>
<path style="fill:#FFC600;" d="M71.26,473.136c0.744,1.882,1.166,3.926,1.166,6.072c0,9.13-7.401,16.531-16.531,16.531
	c-2.939,0-5.693-0.775-8.084-2.119c2.422,6.122,8.381,10.459,15.364,10.459c9.13,0,16.531-7.401,16.531-16.531
	C79.707,481.356,76.298,475.968,71.26,473.136z"/>
<g>
</g>
<g>
</g>
<g>
</g>
<g>
</g>
<g>
</g>
<g>
</g>
<g>
</g>
<g>
</g>
<g>
</g>
<g>
</g>
<g>
</g>
<g>
</g>
<g>
</g>
<g>
</g>
<g>
</g>
</svg>
